
        <svg xmlns="http://www.w3.org/2000/svg" xmlns:xlink="http://www.w3.org/1999/xlink" version="1.1" width="3146.3414634146343" 
        height="951.219512195122" viewBox="0 0 3146.3414634146343 951.219512195122">
			<rect fill="#3f51b5" width="3146.3414634146343" height="951.219512195122"/>
			<g transform="scale(7.317073170731708) translate(10, 10)">
				<defs id="SvgjsDefs1001"></defs><g id="SvgjsG1007" featureKey="2ou6gm-0" transform="matrix(0.6925418569254186,0,0,0.6925418569254186,-3.462709284627093,20.537290715372908)" fill="#ffffff"><g xmlns="http://www.w3.org/2000/svg"><path d="M22.633,85.712c1.59,1.221,3.264,2.334,5.01,3.336L50,66.69l22.355,22.357c1.748-1.002,3.421-2.115,5.011-3.336L50,58.345   L22.633,85.712z"></path><path d="M14.289,22.634l27.367,27.367L14.289,77.368c1.202,1.566,2.498,3.059,3.892,4.453L50,50.001L18.181,18.182   C16.786,19.575,15.491,21.067,14.289,22.634z"></path><path d="M77.367,14.289c-1.589-1.22-3.264-2.333-5.01-3.334L50,33.311L27.642,10.954c-1.746,1.002-3.42,2.116-5.009,3.335   L50,41.657L77.367,14.289z"></path><path d="M58.344,50.001l27.368-27.368c-1.203-1.566-2.498-3.058-3.893-4.453L50,50.001l31.819,31.82   c1.394-1.395,2.689-2.887,3.893-4.453L58.344,50.001z"></path><path d="M89.047,27.643L66.688,50.001L89.047,72.36C92.827,65.771,95,58.144,95,50.001C95,41.86,92.827,34.231,89.047,27.643z"></path><path d="M66.688,91.726L50,75.034L33.312,91.726h-0.165c5.207,2.105,10.892,3.273,16.853,3.273c5.96,0,11.646-1.168,16.852-3.273   H66.688z"></path><path d="M33.312,50.001L10.954,27.644C7.173,34.231,5,41.86,5,50.001c0,8.143,2.172,15.77,5.954,22.357L33.312,50.001z"></path><path d="M33.312,8.278L50,24.966L66.688,8.278h0.17C61.65,6.171,55.963,5,50,5c-5.964,0-11.649,1.171-16.858,3.277H33.312z"></path></g></g><g id="SvgjsG1008" featureKey="nameGroupContainer" transform="matrix(1,0,0,1,82,0)" fill="#3f51b5"><rect xmlns="http://www.w3.org/2000/svg" width="328" height="110" rx="10" ry="10"></rect></g><g id="SvgjsG1009" featureKey="kZnDdN-0" transform="matrix(4.804128413811858,0,0,4.804128413811858,96.23504338356014,-7.671780763134034)" fill="#ffffff"><path d="M2.86 18.44 l6.66 0 l0 1.56 l-7.06 0 l-1.26 0 l0 -14 l1.66 0 l6.48 0 l0 1.56 l-6.48 0 l0 4.64 l5.04 0 l0 1.52 l-5.04 0 l0 4.72 z M20.66 6 l0 1.56 l-3.88 0 l0 12.44 l-1.66 0 l0 -12.44 l-3.9 0 l0 -1.56 l9.44 0 z M33.980000000000004 20 l-1.44 -3.3 l-7.48 0 l-1.44 3.3 l-1.76 0 l6.24 -14 l1.38 0 l6.26 14 l-1.76 0 z M25.68 15.3 l6.24 0 l-3.12 -7.12 z M48.66 20 l-1.44 -3.3 l-7.48 0 l-1.44 3.3 l-1.76 0 l6.24 -14 l1.38 0 l6.26 14 l-1.76 0 z M40.36 15.3 l6.24 0 l-3.12 -7.12 z M56.32 5.76 c2.18 0 3.78 1.44 4.38 2.94 l-1.26 0.68 c-0.64 -1.28 -1.66 -2.12 -3.12 -2.12 c-1.54 0 -2.6 0.88 -2.6 2.1 c0 1.14 0.72 1.86 2.24 2.44 l1.02 0.38 c2.52 0.94 4.1 2.02 4.1 4.24 c0 2.4 -2.3 3.88 -4.68 3.88 s-4.34 -1.44 -4.88 -3.44 l1.34 -0.64 c0.48 1.48 1.74 2.56 3.54 2.56 c1.6 0 2.96 -0.92 2.96 -2.34 c0 -1.6 -1.12 -2.2 -2.78 -2.84 l-1.04 -0.4 c-2.12 -0.8 -3.48 -1.9 -3.48 -3.88 c0 -2.04 1.8 -3.56 4.26 -3.56 z"></path></g>
			</g>
		</svg>
	